ply
format ascii 1.0
comment Created by Blender 2.82 (sub 7) - www.blender.org, source file: ''
element vertex 62
property float x
property float y
property float z
property float nx
property float ny
property float nz
property float s
property float t
element face 36
property list uchar uint vertex_indices
end_header
-25.596054 5.855040 -7.386083 -0.000000 -0.850651 -0.525731 0.801787 0.440983
-27.801334 9.423262 -13.159585 -0.000000 -0.850651 -0.525731 0.900894 0.368034
-22.027832 11.628543 -16.727806 -0.000000 -0.850651 -0.525731 1.000000 0.440983
-16.254332 9.423260 -13.159585 -0.000000 -0.850651 -0.525731 0.962145 0.559017
-18.459612 5.855040 -7.386083 0.000000 -0.850651 -0.525731 0.839643 0.559017
-16.254332 9.423260 -1.612581 -0.000000 -0.850651 0.525731 0.740536 0.631966
-22.027832 11.628543 1.955641 -0.000000 -0.850651 0.525731 0.641430 0.559017
-27.801334 9.423262 -1.612581 -0.000000 -0.850651 0.525731 0.679285 0.440983
-25.596054 5.855040 -7.386083 -0.000000 -0.850651 0.525731 0.801787 0.440983
-18.459612 5.855040 -7.386083 0.000000 -0.850651 0.525731 0.839643 0.559017
-27.801334 9.423262 -1.612581 -0.850651 -0.525731 0.000000 0.679285 0.440983
-31.369556 15.196763 -3.817862 -0.850651 -0.525731 0.000000 0.641430 0.322949
-25.596054 5.855040 -7.386083 -0.850651 -0.525731 0.000000 0.801787 0.440983
-31.369556 15.196763 -10.954304 -0.850651 -0.525731 0.000000 0.740536 0.250000
-27.801334 9.423262 -13.159585 -0.850651 -0.525731 -0.000000 0.839643 0.322949
-22.027832 11.628543 1.955641 -0.525731 0.000000 0.850651 0.641430 0.559017
-22.027832 18.764984 1.955641 -0.525731 0.000000 0.850651 0.518928 0.559017
-27.801332 20.970266 -1.612581 -0.525731 0.000000 0.850651 0.481072 0.440983
-31.369556 15.196763 -3.817862 -0.525731 0.000000 0.850651 0.580179 0.368034
-27.801334 9.423262 -1.612581 -0.525731 -0.000000 0.850651 0.679285 0.440983
-31.369556 15.196763 -3.817862 -0.850651 0.525731 0.000001 0.419821 0.250000
-27.801332 20.970266 -1.612581 -0.850651 0.525731 0.000001 0.457677 0.368034
-25.596054 24.538486 -7.386083 -0.850651 0.525731 0.000001 0.358570 0.440983
-31.369556 15.196763 -3.817862 -0.850651 0.525731 -0.000000 0.419821 0.250000
-25.596054 24.538486 -7.386083 -0.850651 0.525731 -0.000000 0.358570 0.440983
-27.801332 20.970266 -13.159585 -0.850651 0.525731 -0.000000 0.259464 0.368034
-31.369556 15.196763 -10.954304 -0.850651 0.525731 0.000000 0.297319 0.250000
-27.801334 9.423262 -13.159585 -0.525731 0.000000 -0.850651 0.099106 0.250000
-31.369556 15.196763 -10.954304 -0.525731 0.000000 -0.850651 0.221609 0.250000
-27.801332 20.970266 -13.159585 -0.525731 0.000000 -0.850651 0.259464 0.368034
-22.027832 18.764984 -16.727806 -0.525731 0.000000 -0.850651 0.160357 0.440983
-22.027832 11.628543 -16.727806 -0.525731 0.000000 -0.850651 0.061251 0.368034
-22.027832 11.628543 -16.727806 0.525731 0.000000 -0.850651 0.037855 0.440983
-22.027832 18.764984 -16.727806 0.525731 0.000000 -0.850651 0.160357 0.440983
-16.254330 20.970264 -13.159585 0.525731 0.000000 -0.850651 0.198213 0.559017
-12.686107 15.196763 -10.954304 0.525731 0.000000 -0.850651 0.099106 0.631966
-16.254332 9.423260 -13.159585 0.525731 -0.000000 -0.850651 0.000000 0.559017
-18.459612 5.855040 -7.386083 0.850651 -0.525731 -0.000000 0.839643 0.559017
-16.254332 9.423260 -13.159585 0.850651 -0.525731 -0.000000 0.938749 0.631966
-12.686107 15.196763 -10.954304 0.850651 -0.525731 -0.000000 0.900894 0.750000
-12.686107 15.196763 -3.817862 0.850651 -0.525731 0.000000 0.778391 0.750000
-16.254332 9.423260 -1.612581 0.850651 -0.525731 0.000000 0.740536 0.631966
-16.254332 9.423260 -1.612581 0.525731 -0.000000 0.850651 0.740536 0.631966
-12.686107 15.196763 -3.817862 0.525731 -0.000000 0.850651 0.702681 0.750000
-16.254330 20.970264 -1.612581 0.525731 -0.000000 0.850651 0.580179 0.750000
-22.027832 18.764984 1.955641 0.525731 -0.000000 0.850651 0.542323 0.631966
-22.027832 11.628543 1.955641 0.525731 -0.000000 0.850651 0.641430 0.559017
-25.596054 24.538486 -7.386083 -0.000000 0.850651 0.525731 0.358570 0.440983
-27.801332 20.970266 -1.612581 -0.000000 0.850651 0.525731 0.481072 0.440983
-22.027832 18.764984 1.955641 -0.000000 0.850651 0.525731 0.518928 0.559017
-16.254330 20.970264 -1.612581 0.000000 0.850651 0.525731 0.419821 0.631966
-18.459610 24.538486 -7.386083 0.000000 0.850651 0.525731 0.320715 0.559017
-18.459610 24.538486 -7.386083 0.850651 0.525731 0.000000 0.320715 0.559017
-16.254330 20.970264 -1.612581 0.850651 0.525731 0.000000 0.358570 0.677051
-12.686107 15.196763 -3.817862 0.850651 0.525731 0.000000 0.259464 0.750000
-12.686107 15.196763 -10.954304 0.850651 0.525731 -0.000000 0.160357 0.677051
-16.254330 20.970264 -13.159585 0.850651 0.525731 -0.000000 0.198213 0.559017
-18.459610 24.538486 -7.386083 0.000000 0.850651 -0.525731 0.320715 0.559017
-16.254330 20.970264 -13.159585 0.000000 0.850651 -0.525731 0.198213 0.559017
-22.027832 18.764984 -16.727806 0.000000 0.850651 -0.525731 0.160357 0.440983
-27.801332 20.970266 -13.159585 0.000000 0.850651 -0.525731 0.259464 0.368034
-25.596054 24.538486 -7.386083 0.000000 0.850651 -0.525731 0.358570 0.440983
3 0 1 2
3 0 2 3
3 0 3 4
3 5 6 7
3 5 7 8
3 5 8 9
3 10 11 12
3 12 11 13
3 12 13 14
3 15 16 17
3 15 17 18
3 15 18 19
3 20 21 22
3 23 24 25
3 23 25 26
3 27 28 29
3 27 29 30
3 27 30 31
3 32 33 34
3 32 34 35
3 32 35 36
3 37 38 39
3 37 39 40
3 37 40 41
3 42 43 44
3 42 44 45
3 42 45 46
3 47 48 49
3 47 49 50
3 47 50 51
3 52 53 54
3 52 54 55
3 52 55 56
3 57 58 59
3 57 59 60
3 57 60 61
