ply
format ascii 1.0
comment Created by Blender 2.82 (sub 7) - www.blender.org, source file: ''
element vertex 24
property float x
property float y
property float z
property float nx
property float ny
property float nz
property float s
property float t
element face 12
property list uchar uint vertex_indices
end_header
-7.328149 0.000000 -19.237402 -0.000000 -0.000000 -1.000000 0.375024 0.000998
-33.982327 0.000000 -19.237400 -0.000000 -0.000000 -1.000000 0.624525 0.000998
-33.982327 7.957338 -19.237400 -0.000000 -0.000000 -1.000000 0.624525 0.250499
-7.328149 7.957338 -19.237402 -0.000000 0.000000 -1.000000 0.375024 0.250499
-7.328149 7.957338 -19.237402 0.000000 1.000000 0.000000 0.375024 0.250499
-33.982327 7.957338 -19.237400 0.000000 1.000000 0.000000 0.624525 0.250499
-33.982327 7.957338 4.788022 0.000000 1.000000 0.000000 0.624525 0.500000
-7.328147 7.957338 4.788020 0.000000 1.000000 0.000000 0.375024 0.500000
-7.328147 7.957338 4.788020 0.000000 -0.000000 1.000000 0.375024 0.500000
-33.982327 7.957338 4.788022 0.000000 -0.000000 1.000000 0.624525 0.500000
-33.982327 0.000000 4.788022 0.000000 -0.000000 1.000000 0.624525 0.749501
-7.328147 0.000000 4.788020 0.000000 0.000000 1.000000 0.375024 0.749501
-7.328147 0.000000 4.788020 0.000000 -1.000000 0.000000 0.375024 0.749501
-33.982327 0.000000 4.788022 0.000000 -1.000000 0.000000 0.624525 0.749501
-33.982327 0.000000 -19.237400 0.000000 -1.000000 0.000000 0.624525 0.999002
-7.328149 0.000000 -19.237402 0.000000 -1.000000 0.000000 0.375024 0.999002
-33.982327 0.000000 -19.237400 -1.000000 -0.000000 -0.000000 0.624525 0.000998
-33.982327 0.000000 4.788022 -1.000000 -0.000000 -0.000000 0.874026 0.000998
-33.982327 7.957338 4.788022 -1.000000 -0.000000 -0.000000 0.874026 0.250499
-33.982327 7.957338 -19.237400 -1.000000 -0.000000 0.000000 0.624525 0.250499
-7.328147 0.000000 4.788020 1.000000 0.000000 -0.000000 0.125523 0.000998
-7.328149 0.000000 -19.237402 1.000000 0.000000 -0.000000 0.375024 0.000998
-7.328149 7.957338 -19.237402 1.000000 0.000000 -0.000000 0.375024 0.250499
-7.328147 7.957338 4.788020 1.000000 0.000000 -0.000000 0.125523 0.250499
3 0 1 2
3 0 2 3
3 4 5 6
3 4 6 7
3 8 9 10
3 8 10 11
3 12 13 14
3 12 14 15
3 16 17 18
3 16 18 19
3 20 21 22
3 20 22 23
